<svg width="157" height="94" viewBox="0 0 157 94" fill="none" xmlns="http://www.w3.org/2000/svg">
<path d="M82.78 76.2629C83.2709 70.7413 81.7351 65.9772 78.223 62.1048C74.7109 58.2325 70.0407 56.0214 64.3508 55.545C63.5578 55.4839 62.7899 55.4473 62.022 55.4473C57.1 55.4473 52.8326 56.8276 49.3079 59.564C45.2545 62.7156 42.9383 67.1988 42.4348 72.9035C41.9439 78.4373 43.3663 83.238 46.6518 87.1959C49.9374 91.1538 54.4691 93.4015 60.1212 93.8657C65.9118 94.3421 71.0855 92.9251 75.4536 89.6269C79.8343 86.353 82.289 81.8577 82.78 76.2629ZM66.6419 92.4976C65.3075 93.0228 63.9354 93.2916 62.5507 93.2916C62.2486 93.2916 61.9465 93.2794 61.6318 93.2549C59.6932 93.0961 57.8679 92.3998 56.1811 91.1905C53.4117 89.1993 51.4353 86.0354 50.315 81.7966C49.4338 78.364 49.1569 74.626 49.5094 70.6925C49.8618 66.6491 51.1206 63.2409 53.2355 60.5412C55.7657 57.3163 59.0512 55.8504 63.0291 56.1802C65.1061 56.3512 66.9944 57.0109 68.6434 58.1469C71.4506 60.0648 73.4647 63.0454 74.6228 67.0033C75.5921 70.3016 75.9194 73.893 75.5795 77.6921C75.29 80.9293 74.4843 83.8122 73.1878 86.292C71.5513 89.3215 69.3483 91.3981 66.6419 92.4976Z" fill="white"/>
<path d="M6.01715 61.0176V85.9011L12.4497 88.6252C12.3994 88.332 12.3868 88.0388 12.3868 87.7334V74.7603H33.6105V88.4053C33.6105 90.482 33.0063 91.8623 31.7978 92.5342C31.0047 92.9495 29.6326 93.1694 27.5807 93.1939V93.9757H45.9343V93.1939C43.9706 93.1694 42.6236 92.974 41.8558 92.5953C40.5592 91.9234 39.9172 90.5919 39.9172 88.6252V60.7978C39.9172 58.8677 40.5844 57.5484 41.9187 56.8887C42.7369 56.4734 44.0461 56.2657 45.9469 56.2413V55.4595H27.5933V56.2413C29.4186 56.2657 30.7278 56.51 31.5712 56.9498C32.9307 57.695 33.6105 59.0387 33.6105 60.9688V73.5021H12.3868V60.7978C12.3868 58.9776 13.0791 57.6827 14.4261 56.9498C15.3198 56.4978 16.6038 56.2657 18.3536 56.2291V55.4473H0V56.2291C2.05188 56.2535 3.4114 56.4734 4.15411 56.8887C5.38775 57.5484 6.01715 58.941 6.01715 61.0176Z" fill="white"/>
<path d="M110.55 93.1941V93.9759H128.274V93.1941C126.587 93.1574 125.341 92.9131 124.46 92.4245C123.213 91.716 122.584 90.4578 122.584 88.6865V60.798C122.584 58.9901 123.213 57.7196 124.447 57.0111C125.29 56.5225 126.549 56.266 128.261 56.2415V55.4597H116.542L103.714 85.8769L90.6477 55.4597H78.2483V56.2415C80.917 56.3148 82.9815 57.1699 84.4039 58.7702L84.5046 58.8801V88.3322C84.5046 88.8697 85.411 88.7476 85.411 88.2223L85.3732 60.9934L86.1789 61.0057L100.127 94.0003H101.297L115.421 59.9551L116.239 59.9673L116.202 88.1001C116.227 91.3617 114.313 93.0719 110.55 93.1941Z" fill="white"/>
<path d="M155.326 84.6917C152.77 87.5257 150.656 89.5169 149.019 90.6285C146.577 92.2654 143.82 93.1205 140.812 93.1938L140.837 93.9756H154.042L157 84.7039H155.326V84.6917Z" fill="white"/>
<path d="M154.533 63.6198H155.817L152.632 55.5086L125.819 55.4597V85.7547C125.819 85.7547 125.819 88.4544 127.871 88.6498C129.923 88.8575 132.163 88.5033 132.163 88.1856V74.5651H138.81C143.719 74.5651 146.275 76.7517 146.426 81.0639H147.571V67.0647H146.426C146.287 71.5234 143.682 73.7955 138.697 73.7955H132.163V60.8346C132.163 58.9046 132.856 57.5853 134.215 56.9256C135.084 56.4858 136.544 56.2782 138.697 56.2782C141.718 56.2782 144.689 56.95 147.521 58.2938C150.29 59.6008 152.644 61.3843 154.533 63.6198Z" fill="white"/>
<path d="M91.2266 23.3687C93.2281 25.6164 94.7135 27.3877 95.6702 28.6337C95.6702 28.6337 103.525 40.1409 104.457 41.338C106.169 43.5491 108.598 45.9433 114.842 48.5575C121.086 51.1717 136.972 50.4021 136.897 49.5836C136.834 48.7652 120.897 49.4981 109.643 36.5617C108.51 35.2546 103.714 28.9879 102.694 27.8396C98.7166 23.3443 97.6844 22.2082 97.5207 22.0494L96.9291 21.4752L97.7599 21.3409C100.92 20.84 103.563 19.6795 105.602 17.8838C107.893 15.8804 109.064 13.3884 109.064 10.4933C109.064 7.17063 107.516 4.59311 104.318 2.60195C101.549 0.879531 98.3012 0 94.6506 0H70.947V0.842884C72.8101 0.928394 74.0311 1.06277 74.6731 1.25822C76.3599 1.68577 77.3922 2.61417 77.7195 3.99454C77.8453 4.54425 77.9083 5.50929 77.9083 6.93853V31.6509L84.5549 34.0819V21.8173H88.3439C89.2125 21.8173 90.1566 22.3181 91.2266 23.3687ZM84.5549 7.305C84.5549 4.8985 84.9073 3.29824 85.6249 2.41871C86.4934 1.35594 88.1047 0.842884 90.5468 0.842884C92.1581 0.842884 93.4547 0.94061 94.424 1.14828C96.7276 1.64912 98.5278 2.85848 99.774 4.77635C100.907 6.49877 101.486 8.56322 101.486 10.9331C101.486 13.3762 100.995 15.3552 100.038 16.8211C99.0691 18.2992 97.3823 19.4474 95.0157 20.2292C93.3037 20.7912 91.6042 21.0843 89.93 21.0843H84.5549V7.305V7.305Z" fill="white"/>
<path d="M48.4394 33.8984C50.0759 34.6313 52.4551 34.216 53.374 33.8251C52.1278 32.1882 51.599 29.8061 51.599 27.3874V5.42352C51.599 3.43236 52.2033 2.11306 53.4118 1.49006H53.4243C54.0537 1.18467 55.3378 0.964783 57.3644 0.818194V0.0241699H38.9102V0.830407C42.1453 1.12358 42.9384 1.35568 43.2531 1.50227C44.5623 2.07641 45.242 3.50565 45.242 5.7167V26.7766C45.3427 29.5007 46.4505 32.9944 48.4394 33.8984Z" fill="white"/>
<path d="M62.8278 38.211C64.288 37.8568 65.9119 37.136 67.4476 36.0733C70.6199 33.8378 72.2312 30.5762 72.2312 26.3862V12.1182C72.2312 8.68562 72.634 6.02259 73.427 4.20244C74.2201 2.3823 75.8062 1.24624 78.1476 0.843119V0.0124512H64.3132V0.81869C65.5972 0.953063 66.6924 1.20959 67.5484 1.58828C70.1919 2.7732 71.4885 6.21804 71.4885 12.1182V25.6044C71.4885 29.3424 70.3555 32.2986 68.1148 34.3753C66.0378 36.3054 63.218 37.3437 59.7311 37.4781C59.7311 37.4781 59.58 37.8934 60.4234 38.2843C61.292 38.6752 61.4557 38.5408 62.8278 38.211Z" fill="white"/>
<path d="M106.798 30.3807C107.063 30.9915 107.843 31.81 108.372 32.1765C108.598 32.0787 111.947 23.8575 111.947 23.8575H125.97L129.256 31.9932C129.809 33.3736 130.074 34.3753 130.074 35.0594C130.074 36.7818 128.601 37.6857 125.693 37.759V38.5286H141.781V37.7468C139.376 37.5636 137.45 35.7434 136.066 32.323L123.024 0.0124512H118.455L106.798 30.3807ZM118.87 6.499L125.555 22.8559H112.312L118.87 6.499Z" fill="white"/>
<path d="M15.2065 30.3805C15.4709 30.9913 16.2514 31.8097 16.7801 32.1762C17.0067 32.0785 20.3551 23.8573 20.3551 23.8573H34.391L37.6765 31.993C38.2304 33.3734 38.4947 34.375 38.4947 35.0591C38.4947 36.7815 37.0219 37.6855 34.114 37.7588V38.5284H50.2017V37.7466C47.7974 37.5633 45.8714 35.7432 44.4867 32.3228L31.4453 0.012207H26.8758L15.2065 30.3805ZM27.2786 6.49876L33.963 22.8556H20.7328L27.2786 6.49876Z" fill="white"/>
</svg>
