<svg width="80" height="48" viewBox="0 0 80 48" fill="none" xmlns="http://www.w3.org/2000/svg">
<path d="M42.1809 38.9427C42.431 36.1232 41.6485 33.6904 39.8589 31.7131C38.0693 29.7357 35.6895 28.6066 32.7902 28.3633C32.3861 28.3322 31.9949 28.3134 31.6036 28.3134C29.0956 28.3134 26.9211 29.0183 25.1251 30.4156C23.0596 32.0249 21.8794 34.3142 21.6228 37.2273C21.3727 40.053 22.0975 42.5045 23.7716 44.5255C25.4458 46.5466 27.755 47.6943 30.635 47.9314C33.5856 48.1747 36.2219 47.4511 38.4477 45.7669C40.6799 44.0951 41.9307 41.7996 42.1809 38.9427ZM33.9577 47.2327C33.2777 47.501 32.5786 47.6382 31.873 47.6382C31.719 47.6382 31.5651 47.632 31.4047 47.6195C30.4169 47.5384 29.4868 47.1828 28.6273 46.5653C27.2162 45.5485 26.2091 43.9329 25.6382 41.7684C25.1892 40.0156 25.0481 38.1068 25.2277 36.0982C25.4073 34.0335 26.0487 32.2932 27.1264 30.9146C28.4156 29.2678 30.0898 28.5193 32.1167 28.6877C33.1751 28.775 34.1373 29.1119 34.9775 29.692C36.4079 30.6713 37.4342 32.1934 38.0244 34.2144C38.5183 35.8986 38.685 37.7325 38.5119 39.6725C38.3643 41.3255 37.9538 42.7977 37.2931 44.0639C36.4593 45.6109 35.3367 46.6713 33.9577 47.2327Z" fill="#55726D"/>
<path d="M3.06606 31.1579V43.8643L6.3438 45.2554C6.31815 45.1056 6.31173 44.9559 6.31173 44.8V38.1754H17.1264V45.1431C17.1264 46.2035 16.8185 46.9084 16.2027 47.2515C15.7986 47.4635 15.0994 47.5758 14.0539 47.5883V47.9875H23.406V47.5883C22.4054 47.5758 21.7191 47.476 21.3278 47.2826C20.6671 46.9396 20.34 46.2596 20.34 45.2554V31.0456C20.34 30.06 20.6799 29.3863 21.3598 29.0495C21.7768 28.8374 22.4439 28.7314 23.4124 28.7189V28.3197H14.0603V28.7189C14.9904 28.7314 15.6575 28.8561 16.0872 29.0807C16.78 29.4612 17.1264 30.1474 17.1264 31.1329V37.5329H6.31173V31.0456C6.31173 30.1162 6.66453 29.455 7.35086 29.0807C7.80629 28.8499 8.46055 28.7314 9.35215 28.7127V28.3134H0V28.7127C1.04554 28.7251 1.73829 28.8374 2.11674 29.0495C2.74535 29.3863 3.06606 30.0975 3.06606 31.1579Z" fill="#55726D"/>
<path d="M56.331 47.5885V47.9877H65.3624V47.5885C64.5029 47.5697 63.8679 47.445 63.4189 47.1955C62.7838 46.8337 62.4631 46.1912 62.4631 45.2867V31.0458C62.4631 30.1226 62.7838 29.4738 63.4124 29.112C63.8422 28.8625 64.4836 28.7315 65.356 28.7191V28.3198H59.3842L52.848 43.852L46.1899 28.3198H39.8717V28.7191C41.2316 28.7565 42.2835 29.1931 43.0083 30.0103L43.0596 30.0664V45.1058C43.0596 45.3803 43.5215 45.3179 43.5215 45.0497L43.5022 31.1456L43.9128 31.1518L51.0199 48.0002H51.6164L58.8133 30.6154L59.2303 30.6216L59.211 44.9873C59.2239 46.6528 58.2489 47.5261 56.331 47.5885Z" fill="#55726D"/>
<path d="M79.1469 43.2468C77.8448 44.694 76.7672 45.7107 75.9333 46.2784C74.6889 47.1142 73.2841 47.5509 71.7511 47.5883L71.764 47.9875H78.4926L80 43.253H79.1469V43.2468Z" fill="#55726D"/>
<path d="M78.7428 32.4867H79.397L77.7742 28.3448L64.1116 28.3198V43.7896C64.1116 43.7896 64.1116 45.1682 65.1571 45.268C66.2027 45.374 67.3444 45.1931 67.3444 45.031V38.0758H70.7312C73.2328 38.0758 74.5349 39.1924 74.6119 41.3943H75.1956V34.2458H74.6119C74.5414 36.5226 73.2136 37.6828 70.6735 37.6828H67.3444V31.0645C67.3444 30.0789 67.6972 29.4052 68.39 29.0684C68.8326 28.8438 69.5766 28.7378 70.6735 28.7378C72.213 28.7378 73.7267 29.0809 75.17 29.767C76.5811 30.4345 77.7806 31.3452 78.7428 32.4867Z" fill="#55726D"/>
<path d="M46.4849 11.9329C47.5048 13.0807 48.2617 13.9852 48.7492 14.6214C48.7492 14.6214 52.7518 20.4975 53.2264 21.1088C54.0988 22.2378 55.3368 23.4604 58.5183 24.7953C61.6998 26.1302 69.7947 25.7372 69.7563 25.3193C69.7242 24.9014 61.6036 25.2756 55.8691 18.6698C55.2919 18.0023 52.848 14.8023 52.3284 14.216C50.3015 11.9205 49.7755 11.3404 49.6921 11.2593L49.3906 10.9661L49.814 10.8975C51.424 10.6417 52.771 10.0491 53.8101 9.13216C54.9775 8.10916 55.5741 6.83665 55.5741 5.35828C55.5741 3.6616 54.7851 2.34542 53.1559 1.32865C51.7447 0.449122 50.0898 0 48.2296 0H36.1514V0.430409C37.1007 0.474074 37.7229 0.542689 38.05 0.642494C38.9096 0.860818 39.4355 1.33489 39.6023 2.03977C39.6664 2.32047 39.6985 2.81326 39.6985 3.54308V16.1622L43.0853 17.4035V11.1407H45.016C45.4586 11.1407 45.9397 11.3965 46.4849 11.9329ZM43.0853 3.73021C43.0853 2.50136 43.2649 1.68421 43.6305 1.23509C44.0731 0.692397 44.8942 0.430409 46.1385 0.430409C46.9596 0.430409 47.6203 0.480312 48.1142 0.586354C49.288 0.842105 50.2053 1.45965 50.8403 2.43899C51.4176 3.31852 51.7126 4.37271 51.7126 5.58285C51.7126 6.83041 51.4625 7.84094 50.975 8.58948C50.4811 9.34425 49.6216 9.93061 48.4157 10.3298C47.5433 10.6168 46.6774 10.7665 45.8242 10.7665H43.0853V3.73021Z" fill="#55726D"/>
<path d="M24.6825 17.3099C25.5164 17.6842 26.7287 17.4721 27.1969 17.2725C26.5619 16.4367 26.2925 15.2203 26.2925 13.9852V2.7696C26.2925 1.75283 26.6004 1.07915 27.2162 0.761021H27.2226C27.5433 0.605075 28.1976 0.492795 29.2303 0.417941V0.0124817H19.8268V0.424177C21.4753 0.573885 21.8794 0.692403 22.0398 0.767257C22.7069 1.06043 23.0532 1.79026 23.0532 2.9193V13.6733C23.1045 15.0643 23.669 16.8483 24.6825 17.3099Z" fill="#55726D"/>
<path d="M32.0141 19.512C32.7582 19.3311 33.5856 18.9631 34.3682 18.4204C35.9846 17.2789 36.8056 15.6134 36.8056 13.4738V6.18807C36.8056 4.43524 37.0109 3.0754 37.415 2.14596C37.8191 1.21653 38.6273 0.636412 39.8204 0.430564V0.00639343H32.771V0.41809C33.4253 0.486706 33.9833 0.617699 34.4195 0.811071C35.7665 1.41614 36.4272 3.1752 36.4272 6.18807V13.0746C36.4272 14.9834 35.8499 16.4929 34.7081 17.5534C33.6498 18.5389 32.213 19.0692 30.4362 19.1378C30.4362 19.1378 30.3592 19.3499 30.789 19.5495C31.2316 19.7491 31.3149 19.6805 32.0141 19.512Z" fill="#55726D"/>
<path d="M54.4195 15.5136C54.5542 15.8255 54.9519 16.2434 55.2213 16.4306C55.3367 16.3807 57.043 12.1826 57.043 12.1826H64.1886L65.8627 16.337C66.145 17.0419 66.2797 17.5534 66.2797 17.9027C66.2797 18.7822 65.5292 19.2438 64.0475 19.2812V19.6742H72.245V19.275C71.0199 19.1814 70.0385 18.252 69.3329 16.5054L62.6876 0.00639343H60.3592L54.4195 15.5136ZM60.5709 3.31867L63.9769 11.6711H57.229L60.5709 3.31867Z" fill="#55726D"/>
<path d="M7.74855 15.5136C7.88325 15.8255 8.28094 16.2434 8.55035 16.4306C8.66581 16.3807 10.372 12.1826 10.372 12.1826H17.524L19.1982 16.337C19.4804 17.0419 19.6151 17.5534 19.6151 17.9027C19.6151 18.7822 18.8647 19.2438 17.3829 19.2812V19.6742H25.5805V19.275C24.3554 19.1814 23.374 18.252 22.6684 16.5054L16.0231 0.00639343H13.6947L7.74855 15.5136ZM13.8999 3.31867L17.306 11.6711H10.5645L13.8999 3.31867Z" fill="#55726D"/>
</svg>
