<svg width="24" height="24" viewBox="0 0 24 24" fill="none" xmlns="http://www.w3.org/2000/svg">
<g clip-path="url(#clip0_204_7793)">
<path d="M13.44 0C10.8544 0 8.75065 2.05687 8.65502 4.62L6.25502 5.715L0.690025 2.925C0.60565 2.88375 0.5119 2.86875 0.420025 2.88C0.17815 2.91 -0.0018503 3.11625 2.47015e-05 3.36V20.64C-0.0018503 20.8256 0.10315 20.9944 0.270025 21.075L6.03002 23.955C6.16315 24.0188 6.3169 24.0188 6.45002 23.955L12.015 21.165L18.045 23.955C18.18 24.015 18.3356 24.0094 18.465 23.94L23.745 21.06C23.9006 20.9775 23.9981 20.8163 24 20.64V3.36C23.9981 3.19313 23.91 3.0375 23.7656 2.95125C23.6213 2.865 23.4431 2.86125 23.295 2.94L18.165 5.73C18.2081 5.41688 18.24 5.1075 18.24 4.8C18.24 2.15437 16.0856 0 13.44 0ZM13.44 0.96C15.5663 0.96 17.28 2.67375 17.28 4.8C17.28 6.58313 16.2544 8.81813 15.195 10.575C14.3194 12.0263 13.7175 12.7481 13.44 13.095C13.1663 12.7594 12.5644 12.0675 11.685 10.62C10.68 8.96438 9.71065 6.8625 9.61502 5.085C9.6619 4.96313 9.65627 4.82813 9.60002 4.71C9.64877 2.625 11.3438 0.96 13.44 0.96ZM13.44 2.88C12.12 2.88 11.04 3.96 11.04 5.28C11.04 6.6 12.12 7.68 13.44 7.68C14.76 7.68 15.84 6.6 15.84 5.28C15.84 3.96 14.76 2.88 13.44 2.88ZM13.44 3.84C14.2406 3.84 14.88 4.47938 14.88 5.28C14.88 6.08063 14.2406 6.72 13.44 6.72C12.6394 6.72 12 6.08063 12 5.28C12 4.47938 12.6394 3.84 13.44 3.84ZM0.960025 4.14L6.03002 6.675C6.15752 6.735 6.30752 6.735 6.43502 6.675L8.68502 5.655C8.92315 7.575 9.9169 9.53625 10.875 11.115C11.9756 12.9281 13.08 14.235 13.08 14.235C13.1738 14.3419 13.3088 14.4019 13.4513 14.3981C13.5919 14.3963 13.7269 14.3306 13.815 14.22C13.815 14.22 14.9044 12.8925 16.005 11.07C16.785 9.77625 17.5725 8.23688 17.97 6.69L18.18 6.72C18.2794 6.72938 18.3788 6.70875 18.465 6.66L23.04 4.17V20.355L18.225 22.98L12.195 20.205C12.0675 20.145 11.9175 20.145 11.79 20.205L6.24002 22.98L0.960025 20.34V4.14Z" fill="#4E4E4E"/>
</g>
<defs>
<clipPath id="clip0_204_7793">
<rect width="24" height="24" fill="white"/>
</clipPath>
</defs>
</svg>
