<svg width="24" height="24" viewBox="0 0 24 24" fill="none" xmlns="http://www.w3.org/2000/svg">
<path d="M2.39992 1.91998C2.13448 1.91998 1.91992 2.13454 1.91992 2.39998V21.6C1.91992 21.8654 2.13448 22.08 2.39992 22.08H14.2162C14.0405 21.7761 13.8936 21.4555 13.7746 21.12H2.87992V2.87998H21.1199V13.7747C21.4554 13.8932 21.7761 14.0406 22.0799 14.2162V2.39998C22.0799 2.13454 21.8654 1.91998 21.5999 1.91998H2.39992ZM10.0799 4.31998C9.2901 4.31998 8.63992 4.97016 8.63992 5.75998C8.63992 6.5498 9.2901 7.19998 10.0799 7.19998H13.9199C14.7097 7.19998 15.3599 6.5498 15.3599 5.75998C15.3599 4.97016 14.7097 4.31998 13.9199 4.31998H10.0799ZM10.0799 5.27998H13.9199C14.1861 5.27998 14.3999 5.4938 14.3999 5.75998C14.3999 6.02616 14.1861 6.23998 13.9199 6.23998H10.0799C9.81374 6.23998 9.59992 6.02616 9.59992 5.75998C9.59992 5.4938 9.81374 5.27998 10.0799 5.27998ZM19.1999 14.4C16.5599 14.4 14.3999 16.56 14.3999 19.2C14.3999 21.84 16.5599 24 19.1999 24C21.8399 24 23.9999 21.84 23.9999 19.2C23.9999 16.56 21.8399 14.4 19.1999 14.4ZM19.1999 15.36C21.3119 15.36 23.0399 17.088 23.0399 19.2C23.0399 21.312 21.3119 23.04 19.1999 23.04C17.0879 23.04 15.3599 21.312 15.3599 19.2C15.3599 17.088 17.0879 15.36 19.1999 15.36ZM21.2643 16.9922L18.6721 20.0156L17.0877 18.8156L16.5121 19.5844L18.7677 21.3122L21.9843 17.6156L21.2643 16.9922Z" fill="#4E4E4E"/>
</svg>
