<svg width="24" height="24" viewBox="0 0 24 24" fill="none" xmlns="http://www.w3.org/2000/svg">
<path d="M7.19996 3.36C3.75934 3.36 0.959961 6.15938 0.959961 9.6C0.959961 16.6856 8.97371 20.1825 11.7 22.455L12 22.71L12.3 22.455C15.0262 20.1825 23.04 16.6856 23.04 9.6C23.04 6.15938 20.2406 3.36 16.8 3.36C14.8537 3.36 13.1437 4.28438 12 5.685C10.8562 4.28438 9.14621 3.36 7.19996 3.36ZM7.19996 4.32C9.04121 4.32 10.65 5.265 11.595 6.69L12 7.29L12.405 6.69C13.35 5.265 14.9587 4.32 16.8 4.32C19.7212 4.32 22.08 6.67875 22.08 9.6C22.08 15.7913 15.165 18.9956 12 21.495C8.83496 18.9956 1.91996 15.7913 1.91996 9.6C1.91996 6.67875 4.27871 4.32 7.19996 4.32Z" fill="#4E4E4E"/>
</svg>
