<svg width="24" height="24" viewBox="0 0 24 24" fill="none" xmlns="http://www.w3.org/2000/svg">
<path d="M12.9 13.8V20.1C12.9 20.5972 13.3027 21 13.8 21H20.1C20.5972 21 21 20.5972 21 20.1V13.8C21 13.3027 20.5972 12.9 20.1 12.9H13.8C13.3027 12.9 12.9 13.3027 12.9 13.8ZM21 10.2V3.9C21 3.40275 20.5972 3 20.1 3H13.8C13.3027 3 12.9 3.40275 12.9 3.9V10.2C12.9 10.6972 13.3027 11.1 13.8 11.1H20.1C20.5972 11.1 21 10.6972 21 10.2ZM3 13.8V20.1C3 20.5972 3.40275 21 3.9 21H10.2C10.6972 21 11.1 20.5972 11.1 20.1V13.8C11.1 13.3027 10.6972 12.9 10.2 12.9H3.9C3.40275 12.9 3 13.3027 3 13.8ZM11.1 10.2V3.9C11.1 3.40275 10.6972 3 10.2 3H3.9C3.40275 3 3 3.40275 3 3.9V10.2C3 10.6972 3.40275 11.1 3.9 11.1H10.2C10.6972 11.1 11.1 10.6972 11.1 10.2Z" stroke="#55726D" stroke-width="0.96"/>
</svg>
