<svg width="24" height="24" viewBox="0 0 24 24" fill="none" xmlns="http://www.w3.org/2000/svg">
<path d="M1.44 4.31987C1.37639 4.31897 1.31324 4.33072 1.25422 4.35444C1.19519 4.37816 1.14147 4.41337 1.09617 4.45804C1.05088 4.5027 1.01491 4.55592 0.990357 4.6146C0.965806 4.67328 0.953163 4.73626 0.953163 4.79987C0.953163 4.86348 0.965806 4.92646 0.990357 4.98515C1.01491 5.04383 1.05088 5.09705 1.09617 5.14171C1.14147 5.18637 1.19519 5.22158 1.25422 5.2453C1.31324 5.26902 1.37639 5.28077 1.44 5.27987H22.56C22.6236 5.28077 22.6868 5.26902 22.7458 5.2453C22.8048 5.22158 22.8585 5.18637 22.9038 5.14171C22.9491 5.09705 22.9851 5.04383 23.0096 4.98515C23.0342 4.92646 23.0468 4.86348 23.0468 4.79987C23.0468 4.73626 23.0342 4.67328 23.0096 4.6146C22.9851 4.55592 22.9491 4.5027 22.9038 4.45804C22.8585 4.41337 22.8048 4.37816 22.7458 4.35444C22.6868 4.33072 22.6236 4.31897 22.56 4.31987H1.44ZM1.44 11.5199C1.37639 11.519 1.31324 11.5307 1.25422 11.5544C1.19519 11.5782 1.14147 11.6134 1.09617 11.658C1.05088 11.7027 1.01491 11.7559 0.990357 11.8146C0.965806 11.8733 0.953163 11.9363 0.953163 11.9999C0.953163 12.0635 0.965806 12.1265 0.990357 12.1851C1.01491 12.2438 1.05088 12.297 1.09617 12.3417C1.14147 12.3864 1.19519 12.4216 1.25422 12.4453C1.31324 12.469 1.37639 12.4808 1.44 12.4799H22.56C22.6236 12.4808 22.6868 12.469 22.7458 12.4453C22.8048 12.4216 22.8585 12.3864 22.9038 12.3417C22.9491 12.297 22.9851 12.2438 23.0096 12.1851C23.0342 12.1265 23.0468 12.0635 23.0468 11.9999C23.0468 11.9363 23.0342 11.8733 23.0096 11.8146C22.9851 11.7559 22.9491 11.7027 22.9038 11.658C22.8585 11.6134 22.8048 11.5782 22.7458 11.5544C22.6868 11.5307 22.6236 11.519 22.56 11.5199H1.44ZM1.44 18.7199C1.37639 18.719 1.31324 18.7307 1.25422 18.7544C1.19519 18.7782 1.14147 18.8134 1.09617 18.858C1.05088 18.9027 1.01491 18.9559 0.990357 19.0146C0.965806 19.0733 0.953163 19.1363 0.953163 19.1999C0.953163 19.2635 0.965806 19.3265 0.990357 19.3851C1.01491 19.4438 1.05088 19.497 1.09617 19.5417C1.14147 19.5864 1.19519 19.6216 1.25422 19.6453C1.31324 19.669 1.37639 19.6808 1.44 19.6799H22.56C22.6236 19.6808 22.6868 19.669 22.7458 19.6453C22.8048 19.6216 22.8585 19.5864 22.9038 19.5417C22.9491 19.497 22.9851 19.4438 23.0096 19.3851C23.0342 19.3265 23.0468 19.2635 23.0468 19.1999C23.0468 19.1363 23.0342 19.0733 23.0096 19.0146C22.9851 18.9559 22.9491 18.9027 22.9038 18.858C22.8585 18.8134 22.8048 18.7782 22.7458 18.7544C22.6868 18.7307 22.6236 18.719 22.56 18.7199H1.44Z" fill="#4E4E4E"/>
</svg>
