<svg width="24" height="24" viewBox="0 0 24 24" fill="none" xmlns="http://www.w3.org/2000/svg">
<circle cx="12" cy="12" r="9.5" stroke="#4E4E4E"/>
<path d="M14.1579 7C13.1452 7 12.3158 7.82941 12.3158 8.84211C12.3158 8.99625 12.368 9.13407 12.4042 9.27745L9.24887 10.8559C8.91029 10.4405 8.41619 10.1579 7.84211 10.1579C6.82941 10.1579 6 10.9873 6 12C6 13.0127 6.82941 13.8421 7.84211 13.8421C8.41619 13.8421 8.91029 13.5595 9.24887 13.1441L12.4042 14.7226C12.368 14.8659 12.3158 15.0037 12.3158 15.1579C12.3158 16.1706 13.1452 17 14.1579 17C15.1706 17 16 16.1706 16 15.1579C16 14.1452 15.1706 13.3158 14.1579 13.3158C13.5838 13.3158 13.0897 13.5984 12.7511 14.0138L9.59581 12.4353C9.63196 12.292 9.68421 12.1541 9.68421 12C9.68421 11.8459 9.63196 11.708 9.59581 11.5647L12.7511 9.98623C13.0897 10.4016 13.5838 10.6842 14.1579 10.6842C15.1706 10.6842 16 9.8548 16 8.84211C16 7.82941 15.1706 7 14.1579 7ZM14.1579 7.78947C14.7439 7.78947 15.2105 8.25608 15.2105 8.84211C15.2105 9.42813 14.7439 9.89474 14.1579 9.89474C13.5719 9.89474 13.1053 9.42813 13.1053 8.84211C13.1053 8.25608 13.5719 7.78947 14.1579 7.78947ZM7.84211 10.9474C8.42813 10.9474 8.89474 11.414 8.89474 12C8.89474 12.586 8.42813 13.0526 7.84211 13.0526C7.25608 13.0526 6.78947 12.586 6.78947 12C6.78947 11.414 7.25608 10.9474 7.84211 10.9474ZM14.1579 14.1053C14.7439 14.1053 15.2105 14.5719 15.2105 15.1579C15.2105 15.7439 14.7439 16.2105 14.1579 16.2105C13.5719 16.2105 13.1053 15.7439 13.1053 15.1579C13.1053 14.5719 13.5719 14.1053 14.1579 14.1053Z" fill="#4E4E4E"/>
</svg>
