<svg width="24" height="24" viewBox="0 0 24 24" fill="none" xmlns="http://www.w3.org/2000/svg">
<path d="M12 0.963745C5.90842 0.963745 0.959961 5.91221 0.959961 12.0037C0.959961 18.0953 5.90842 23.0437 12 23.0437C18.0915 23.0437 23.04 18.0953 23.04 12.0037C23.04 5.91221 18.0915 0.963745 12 0.963745ZM12 1.92375C17.5727 1.92375 22.08 6.43103 22.08 12.0037C22.08 14.7554 20.9779 17.2444 19.1943 19.0622C18.316 18.4174 17.2454 18.0939 16.3387 17.7712C15.8281 17.5895 15.3689 17.4095 15.0337 17.2087C14.7127 17.0165 14.5344 16.8189 14.4403 16.5919C14.3962 16.0414 14.4051 15.5982 14.4084 15.075C14.4666 15.0171 14.5412 14.9764 14.6006 14.9062C14.7407 14.7408 14.8834 14.5398 15.0196 14.3137C15.2532 13.9261 15.4232 13.452 15.5184 12.9712C15.6638 12.8971 15.8192 12.8811 15.9375 12.7303C16.1558 12.452 16.3033 12.0602 16.3687 11.5144C16.4267 11.0324 16.2715 10.701 16.0715 10.4466C16.2866 9.74344 16.5529 8.62528 16.4625 7.46812C16.4127 6.83149 16.2525 6.19068 15.8671 5.65781C15.4992 5.14907 14.9019 4.78337 14.1375 4.65093C13.6519 4.09966 12.8806 3.84 11.9587 3.84H11.954H11.9503C9.88496 3.87791 8.55239 4.73272 7.98184 6.03656C7.4393 7.27639 7.55593 8.81988 7.94527 10.4269C7.73598 10.6813 7.57203 11.0191 7.63121 11.5144C7.6969 12.06 7.84424 12.4519 8.06246 12.7303C8.18066 12.8811 8.33603 12.8971 8.48152 12.9712C8.57674 13.4516 8.74673 13.9251 8.98027 14.3128C9.11648 14.5389 9.25903 14.7397 9.39934 14.9053C9.45878 14.9755 9.5333 15.017 9.59152 15.075C9.59464 15.5979 9.60351 16.0409 9.55965 16.5919C9.4657 16.8181 9.28766 17.0158 8.96715 17.2087C8.63248 17.4102 8.17389 17.5913 7.66402 17.7741C6.75827 18.0987 5.68825 18.4245 4.80746 19.0641C3.02282 17.2461 1.91996 14.7564 1.91996 12.0037C1.91996 6.43103 6.42725 1.92375 12 1.92375ZM11.9625 4.80093C12.8476 4.80184 13.4046 5.06393 13.5571 5.33156L13.6743 5.53687L13.9078 5.56874C14.5107 5.65253 14.8476 5.88651 15.089 6.22031C15.3304 6.5541 15.4644 7.01994 15.5053 7.54312C15.5871 8.58947 15.2875 9.82507 15.0975 10.3969L14.9765 10.7597L15.3037 10.9584C15.2704 10.9382 15.4575 11.0489 15.4153 11.4C15.3641 11.8271 15.2549 12.0446 15.1818 12.1378C15.1087 12.231 15.0775 12.2191 15.0853 12.2184L14.6896 12.2512L14.6475 12.6459C14.6113 12.985 14.4205 13.4476 14.1975 13.8178C14.0859 14.0029 13.9673 14.1678 13.8675 14.2856C13.7677 14.4034 13.6614 14.4764 13.7015 14.4553L13.4446 14.5894V14.88C13.4446 15.5157 13.4188 16.0355 13.4859 16.7756L13.4915 16.8394L13.514 16.8994C13.7029 17.4077 14.0972 17.7664 14.5406 18.0319C14.984 18.2974 15.4926 18.4893 16.0171 18.6759C16.8816 18.9835 17.7827 19.2862 18.4696 19.7334C16.7194 21.1994 14.465 22.0837 12 22.0837C9.53584 22.0837 7.28208 21.2003 5.53215 19.7353C6.22295 19.2907 7.12543 18.9871 7.9884 18.6778C8.51257 18.4899 9.01991 18.2972 9.46215 18.0309C9.90439 17.7647 10.2973 17.4061 10.4859 16.8994L10.5084 16.8394L10.514 16.7756C10.5806 16.0361 10.5553 15.5161 10.5553 14.88V14.5894L10.2984 14.4544C10.3386 14.4754 10.2323 14.4025 10.1325 14.2847C10.0326 14.1669 9.91399 14.003 9.80246 13.8178C9.57939 13.4475 9.38865 12.9846 9.35246 12.6459L9.31027 12.2512L8.91465 12.2184C8.92206 12.2191 8.8911 12.231 8.81809 12.1378C8.74507 12.0447 8.63608 11.8273 8.58465 11.4C8.54269 11.0489 8.73191 10.9367 8.69621 10.9584L9.0009 10.7737L8.91184 10.4278C8.49882 8.83819 8.43636 7.39181 8.86121 6.42093C9.28564 5.45101 10.1358 4.83565 11.9625 4.80093Z" fill="#4E4E4E"/>
</svg>
