<svg width="24" height="24" viewBox="0 0 24 24" fill="none" xmlns="http://www.w3.org/2000/svg">
<path d="M12.5 0C9.87315 0 7.75424 2.09574 7.75424 4.69388V5.63265H4.00212L3.95763 6.04337L2.05932 22.4719L2 23H23L22.9407 22.4719L21.0424 6.04337L20.9979 5.63265H17.2458V4.69388C17.2458 2.09574 15.1269 0 12.5 0ZM12.5 0.938776C14.6189 0.938776 16.2966 2.59813 16.2966 4.69388V5.63265H8.70339V4.69388C8.70339 2.59813 10.3811 0.938776 12.5 0.938776ZM4.86229 6.57143H7.75424V7.64222C7.4706 7.80541 7.27966 8.10244 7.27966 8.44898C7.27966 8.96787 7.70418 9.38776 8.22881 9.38776C8.75344 9.38776 9.17797 8.96787 9.17797 8.44898C9.17797 8.10244 8.98702 7.80541 8.70339 7.64222V6.57143H16.2966V7.64222C16.013 7.80541 15.822 8.10244 15.822 8.44898C15.822 8.96787 16.2466 9.38776 16.7712 9.38776C17.2958 9.38776 17.7203 8.96787 17.7203 8.44898C17.7203 8.10244 17.5294 7.80541 17.2458 7.64222V6.57143H20.1377L21.9322 22.0612H3.0678L4.86229 6.57143Z" fill="#4E4E4E"/>
</svg>
