<svg width="24" height="24" viewBox="0 0 24 24" fill="none" xmlns="http://www.w3.org/2000/svg">
<g opacity="0.6">
<path fill-rule="evenodd" clip-rule="evenodd" d="M7.85999 4.31995C4.85624 4.31995 2.39999 6.7462 2.39999 9.73495C2.39999 14.6711 6.91024 17.7139 9.8914 19.7251C10.6121 20.2113 11.2434 20.6372 11.7 21.0149L12 21.2699L12.3 21.0149C12.7566 20.6372 13.3879 20.2113 14.1086 19.7251C17.0898 17.7139 21.6 14.6711 21.6 9.73495C21.6 6.7462 19.1437 4.31995 16.14 4.31995C14.4712 4.31995 13.0012 5.09432 12 6.26995C10.9987 5.09432 9.52874 4.31995 7.85999 4.31995ZM11.595 7.27495C10.7906 6.07307 9.42749 5.27995 7.85999 5.27995C5.36999 5.27995 3.35999 7.26932 3.35999 9.73495C3.35999 14.0287 7.32514 16.7738 10.2694 18.8121C10.9122 19.2572 11.5064 19.6685 12 20.0549C12.4936 19.6685 13.0878 19.2572 13.7306 18.8121C16.6748 16.7738 20.64 14.0287 20.64 9.73495C20.64 7.26932 18.6281 5.27995 16.14 5.27995C14.5725 5.27995 13.2094 6.07307 12.405 7.27495L12 7.87495L11.595 7.27495Z" fill="white"/>
<path d="M7.85999 5.27995C9.42749 5.27995 10.7906 6.07307 11.595 7.27495L12 7.87495L12.405 7.27495C13.2094 6.07307 14.5725 5.27995 16.14 5.27995C18.6281 5.27995 20.64 7.26932 20.64 9.73495C20.64 14.0287 16.6748 16.7738 13.7306 18.8121C13.0878 19.2572 12.4936 19.6685 12 20.0549C11.5064 19.6685 10.9122 19.2572 10.2694 18.8121C7.32514 16.7738 3.35999 14.0287 3.35999 9.73495C3.35999 7.26932 5.36999 5.27995 7.85999 5.27995Z" fill="white"/>
</g>
<path d="M7.86039 4.32007C4.85664 4.32007 2.40039 6.74632 2.40039 9.73507C2.40039 15.8644 9.35477 19.0744 11.7004 21.0151L12.0004 21.2701L12.3004 21.0151C14.646 19.0744 21.6004 15.8644 21.6004 9.73507C21.6004 6.74632 19.1441 4.32007 16.1404 4.32007C14.4716 4.32007 13.0016 5.09444 12.0004 6.27007C10.9991 5.09444 9.52914 4.32007 7.86039 4.32007ZM7.86039 5.28007C9.42789 5.28007 10.791 6.07319 11.5954 7.27507L12.0004 7.87507L12.4054 7.27507C13.2098 6.07319 14.5729 5.28007 16.1404 5.28007C18.6285 5.28007 20.6404 7.26944 20.6404 9.73507C20.6404 14.9663 14.7548 17.8988 12.0004 20.0551C9.24602 17.8988 3.36039 14.9663 3.36039 9.73507C3.36039 7.26944 5.37039 5.28007 7.86039 5.28007Z" fill="#4E4E4E"/>
</svg>
