<svg width="24" height="24" viewBox="0 0 24 24" fill="none" xmlns="http://www.w3.org/2000/svg">
<circle cx="12" cy="12" r="10.5" stroke="#4E4E4E"/>
<path d="M7.98845 6.24001C7.68075 6.24001 7.24131 6.35448 6.88032 6.74344C6.6635 6.97707 5.76001 7.85737 5.76001 9.40501C5.76001 11.0185 6.87908 12.4108 7.01438 12.5897L7.01532 12.5906C7.00249 12.5738 7.18706 12.8411 7.43345 13.1616C7.67983 13.4821 8.02436 13.903 8.4572 14.3588C9.32286 15.2702 10.54 16.3236 12.0506 16.9678C12.7463 17.2641 13.2951 17.4429 13.7109 17.5734C14.4815 17.8154 15.1834 17.7786 15.7106 17.7009C16.1053 17.6428 16.5393 17.4533 16.9688 17.1816C17.3982 16.9098 17.8191 16.5719 18.0047 16.0584C18.1377 15.6904 18.2053 15.3502 18.2297 15.0703C18.2419 14.9304 18.2435 14.8069 18.2344 14.6925C18.2253 14.5782 18.235 14.4906 18.1284 14.3156C17.905 13.9487 17.6519 13.9391 17.3878 13.8084C17.2411 13.7358 16.8234 13.5318 16.4044 13.3322C15.9859 13.1328 15.6235 12.9561 15.4003 12.8766C15.2593 12.8258 15.0872 12.7528 14.8388 12.7809C14.5904 12.8091 14.345 12.9883 14.2022 13.2C14.0668 13.4007 13.5218 14.044 13.3556 14.2331C13.3534 14.2318 13.3678 14.2384 13.3022 14.2059C13.0967 14.1042 12.8454 14.0178 12.4734 13.8216C12.1015 13.6254 11.6363 13.3357 11.1272 12.8869C10.3695 12.2198 9.8387 11.3813 9.67126 11.1C9.68254 11.0866 9.66992 11.1028 9.69376 11.0794L9.6947 11.0784C9.86582 10.9099 10.0175 10.7086 10.1456 10.5609C10.3273 10.3516 10.4075 10.1671 10.4944 9.99469C10.6675 9.6511 10.5711 9.273 10.4709 9.07407C10.4779 9.08783 10.4168 8.95208 10.3509 8.79657C10.2849 8.64061 10.2008 8.43842 10.1109 8.22282C9.93123 7.79161 9.73058 7.30796 9.61126 7.02469C9.47069 6.69103 9.28052 6.44972 9.03188 6.33376C8.78325 6.21779 8.56358 6.25076 8.5547 6.25032C8.37727 6.24213 8.18163 6.24001 7.98845 6.24001ZM7.98845 7.20001C8.17351 7.20001 8.35595 7.20226 8.50876 7.20938C8.66596 7.21721 8.65618 7.21786 8.62595 7.20376C8.59523 7.18943 8.63691 7.18478 8.72626 7.39688C8.8431 7.67425 9.04473 8.15964 9.22501 8.59219C9.31515 8.80847 9.39951 9.01144 9.46689 9.17063C9.53426 9.32982 9.57077 9.41871 9.61313 9.50344L9.61407 9.50532C9.65561 9.58728 9.65194 9.5348 9.63751 9.56344C9.53622 9.76448 9.52247 9.81384 9.42001 9.93188C9.264 10.1116 9.10487 10.312 9.02064 10.395C8.94694 10.4674 8.81397 10.5802 8.73095 10.8009C8.6478 11.022 8.6866 11.3254 8.82001 11.5519C8.99763 11.8534 9.58292 12.8061 10.4925 13.6069C11.0653 14.1119 11.599 14.4461 12.0253 14.6709C12.4516 14.8958 12.7989 15.0272 12.8766 15.0656C13.0611 15.1569 13.2627 15.2278 13.4972 15.1997C13.7317 15.1715 13.9338 15.0293 14.0625 14.8838L14.0634 14.8828C14.2347 14.6887 14.7436 14.1076 14.9878 13.7494C14.9982 13.753 14.9948 13.7502 15.0759 13.7794L15.0769 13.7803C15.1139 13.7935 15.5781 14.0013 15.9919 14.1984C16.4057 14.3956 16.8257 14.6006 16.9622 14.6681C17.1592 14.7656 17.2522 14.8291 17.2763 14.8294C17.2779 14.8716 17.2795 14.9174 17.2734 14.9869C17.2566 15.1797 17.2051 15.4465 17.1019 15.7322C17.0513 15.872 16.788 16.1605 16.4559 16.3706C16.1239 16.5808 15.7197 16.7292 15.57 16.7513C15.12 16.8176 14.5856 16.8418 13.9988 16.6575C13.5919 16.5298 13.0845 16.3645 12.4275 16.0847C11.0951 15.5165 9.96269 14.5495 9.15376 13.6978C8.74929 13.272 8.42524 12.8755 8.1947 12.5756C7.96459 12.2763 7.8641 12.1205 7.78032 12.0103L7.77939 12.0094C7.63067 11.8127 6.72001 10.546 6.72001 9.40501C6.72001 8.19744 7.28089 7.7239 7.58438 7.39688C7.74372 7.2252 7.91791 7.20001 7.98845 7.20001Z" fill="#4E4E4E"/>
</svg>
