<svg width="24" height="24" viewBox="0 0 24 24" fill="none" xmlns="http://www.w3.org/2000/svg">
<path d="M2.39992 1.92001C2.13448 1.92001 1.91992 2.13457 1.91992 2.40001V21.6C1.91992 21.8655 2.13448 22.08 2.39992 22.08H14.2162C14.0405 21.7762 13.8936 21.4555 13.7746 21.12H2.87992V2.88001H21.1199V13.7747C21.4554 13.8933 21.7761 14.0406 22.0799 14.2163V2.40001C22.0799 2.13457 21.8654 1.92001 21.5999 1.92001H2.39992ZM10.0799 4.32001C9.2901 4.32001 8.63992 4.97019 8.63992 5.76001C8.63992 6.54983 9.2901 7.20001 10.0799 7.20001H13.9199C14.7097 7.20001 15.3599 6.54983 15.3599 5.76001C15.3599 4.97019 14.7097 4.32001 13.9199 4.32001H10.0799ZM10.0799 5.28001H13.9199C14.1861 5.28001 14.3999 5.49383 14.3999 5.76001C14.3999 6.02619 14.1861 6.24001 13.9199 6.24001H10.0799C9.81374 6.24001 9.59992 6.02619 9.59992 5.76001C9.59992 5.49383 9.81374 5.28001 10.0799 5.28001ZM19.1999 14.4C16.5599 14.4 14.3999 16.56 14.3999 19.2C14.3999 21.84 16.5599 24 19.1999 24C21.8399 24 23.9999 21.84 23.9999 19.2C23.9999 16.56 21.8399 14.4 19.1999 14.4ZM19.1999 15.36C21.3119 15.36 23.0399 17.088 23.0399 19.2C23.0399 21.312 21.3119 23.04 19.1999 23.04C17.0879 23.04 15.3599 21.312 15.3599 19.2C15.3599 17.088 17.0879 15.36 19.1999 15.36ZM21.2643 16.9922L18.6721 20.0156L17.0877 18.8156L16.5121 19.5844L18.7677 21.3122L21.9843 17.6156L21.2643 16.9922Z" fill="#4E4E4E"/>
</svg>
