<svg width="24" height="24" viewBox="0 0 24 24" fill="none" xmlns="http://www.w3.org/2000/svg">
<path d="M3.35992 3.35989C2.57055 3.35989 1.91992 4.01052 1.91992 4.79989V19.1999C1.91992 19.9893 2.57055 20.6399 3.35992 20.6399H20.6399C21.4293 20.6399 22.0799 19.9893 22.0799 19.1999V4.79989C22.0799 4.01052 21.4293 3.35989 20.6399 3.35989H3.35992ZM3.35992 4.31989H20.6399C20.9062 4.31989 21.1199 4.53364 21.1199 4.79989V19.1999C21.1199 19.4661 20.9062 19.6799 20.6399 19.6799H3.35992C3.09367 19.6799 2.87992 19.4661 2.87992 19.1999V4.79989C2.87992 4.53364 3.09367 4.31989 3.35992 4.31989Z" fill="#4E4E4E"/>
</svg>
