<svg width="24" height="21" viewBox="0 0 24 21" fill="none" xmlns="http://www.w3.org/2000/svg">
<path d="M10.2329 1.54755C9.50326 1.54755 8.90186 2.0477 8.90186 2.65452V3.3925H5.43559C5.38013 3.38385 5.32466 3.38385 5.2692 3.3925H4.46503C4.45116 3.3925 4.4373 3.3925 4.42343 3.3925C4.17906 3.40259 3.98842 3.57556 4.00055 3.77879C4.01268 3.98202 4.22066 4.14058 4.46503 4.13049H4.95031L6.54479 19.0746C6.60025 19.5906 7.12886 19.9971 7.75106 19.9971H16.2642C16.8864 19.9971 17.415 19.5906 17.4705 19.0746L19.065 4.13049H19.5503C19.7097 4.13193 19.8587 4.06274 19.9402 3.94743C20.0199 3.83212 20.0199 3.69087 19.9402 3.57556C19.8587 3.46025 19.7097 3.39106 19.5503 3.3925H15.1134V2.65452C15.1134 2.0477 14.512 1.54755 13.7824 1.54755H10.2329ZM10.2329 2.28553H13.7824C14.0319 2.28553 14.2261 2.44696 14.2261 2.65452V3.3925H9.78922V2.65452C9.78922 2.44696 9.98334 2.28553 10.2329 2.28553ZM5.83767 4.13049H18.1776L16.5831 19.017C16.5693 19.1453 16.4046 19.2591 16.2642 19.2591H7.75106C7.61067 19.2591 7.44602 19.1453 7.43216 19.017L5.83767 4.13049ZM9.30395 5.22593C9.28488 5.22881 9.26582 5.23314 9.24849 5.23746C9.04224 5.27638 8.89666 5.4306 8.90186 5.60645V17.7832C8.90013 17.9158 8.98332 18.0397 9.12197 18.1075C9.26062 18.1738 9.43047 18.1738 9.56912 18.1075C9.70777 18.0397 9.79096 17.9158 9.78922 17.7832V5.60645C9.79442 5.49979 9.74243 5.39745 9.65057 5.32538C9.55698 5.25187 9.43047 5.21584 9.30395 5.22593ZM11.966 5.22593C11.947 5.22881 11.9279 5.23314 11.9106 5.23746C11.7043 5.27638 11.5588 5.4306 11.564 5.60645V17.7832C11.5622 17.9158 11.6454 18.0397 11.7841 18.1075C11.9227 18.1738 12.0926 18.1738 12.2312 18.1075C12.3699 18.0397 12.4531 17.9158 12.4513 17.7832V5.60645C12.4565 5.49979 12.4045 5.39745 12.3127 5.32538C12.2191 5.25187 12.0926 5.21584 11.966 5.22593ZM14.6281 5.22593C14.6091 5.22881 14.59 5.23314 14.5727 5.23746C14.3664 5.27638 14.2209 5.4306 14.2261 5.60645V17.7832C14.2243 17.9158 14.3075 18.0397 14.4462 18.1075C14.5848 18.1738 14.7547 18.1738 14.8933 18.1075C15.032 18.0397 15.1152 17.9158 15.1134 17.7832V5.60645C15.1186 5.49979 15.0666 5.39745 14.9748 5.32538C14.8812 5.25187 14.7547 5.21584 14.6281 5.22593Z" fill="#4E4E4E"/>
</svg>
