<svg width="32" height="32" viewBox="0 0 32 32" fill="none" xmlns="http://www.w3.org/2000/svg">
<path d="M16 2.60498C7.91495 2.60498 1.32495 8.26998 1.32495 15.36C1.32495 19.475 3.57995 23.0575 7.04245 25.4C7.03745 25.5375 7.04745 25.76 6.86745 26.43C6.64245 27.2575 6.18995 28.425 5.27245 29.74L4.61995 30.675H5.75995C9.70995 30.675 11.995 28.1 12.35 27.6875C13.525 27.9625 14.735 28.115 16 28.115C24.085 28.115 30.675 22.45 30.675 15.36C30.675 8.26998 24.085 2.60498 16 2.60498ZM16 3.79498C23.5325 3.79498 29.485 9.00998 29.485 15.36C29.485 21.71 23.5325 26.925 16 26.925C14.695 26.925 13.465 26.8 12.31 26.4975L11.94 26.4L11.6975 26.6975C11.6975 26.6975 9.84995 28.7825 6.89995 29.285C7.43495 28.32 7.82995 27.42 8.01245 26.74C8.26995 25.7925 8.27495 25.1525 8.27495 25.1525V24.825L7.99995 24.65C4.61995 22.5 2.51495 19.1725 2.51495 15.36C2.51495 9.00998 8.46745 3.79498 16 3.79498ZM9.59995 14.08C8.89245 14.08 8.31995 14.6525 8.31995 15.36C8.31995 16.0675 8.89245 16.64 9.59995 16.64C10.3075 16.64 10.88 16.0675 10.88 15.36C10.88 14.6525 10.3075 14.08 9.59995 14.08ZM16 14.08C15.2925 14.08 14.72 14.6525 14.72 15.36C14.72 16.0675 15.2925 16.64 16 16.64C16.7075 16.64 17.28 16.0675 17.28 15.36C17.28 14.6525 16.7075 14.08 16 14.08ZM22.4 14.08C21.6925 14.08 21.12 14.6525 21.12 15.36C21.12 16.0675 21.6925 16.64 22.4 16.64C23.1075 16.64 23.68 16.0675 23.68 15.36C23.68 14.6525 23.1075 14.08 22.4 14.08Z" fill="#4E4E4E"/>
</svg>
