<svg width="24" height="24" viewBox="0 0 24 24" fill="none" xmlns="http://www.w3.org/2000/svg">
<g clip-path="url(#clip0_204_7795)">
<path d="M1.44 0C0.650625 0 0 0.650625 0 1.44V22.56C0 23.3494 0.650625 24 1.44 24H17.76C18.5494 24 19.2 23.3494 19.2 22.56V18.72L18.24 19.68V22.56C18.24 22.83 18.03 23.04 17.76 23.04H1.44C1.17 23.04 0.96 22.83 0.96 22.56V1.44C0.96 1.16813 1.16813 0.96 1.44 0.96H17.76C18.03 0.96 18.24 1.17 18.24 1.44V4.32L19.2 5.28V1.44C19.2 0.650625 18.5494 0 17.76 0H1.44ZM18.165 6.285C17.985 6.31687 17.8406 6.44812 17.79 6.6225C17.7394 6.79875 17.7919 6.98625 17.925 7.11L22.335 11.52H8.16C8.145 11.52 8.13 11.52 8.115 11.52C7.85063 11.5331 7.64438 11.7581 7.6575 12.0225C7.67063 12.2869 7.89563 12.4931 8.16 12.48H22.335L17.925 16.89C17.7825 17.0062 17.7169 17.1919 17.7581 17.3719C17.7994 17.55 17.94 17.6906 18.1181 17.7319C18.2981 17.7731 18.4838 17.7075 18.6 17.565L23.835 12.345L24.165 12L23.835 11.655L18.6 6.435C18.5006 6.32812 18.3563 6.27375 18.21 6.285C18.195 6.285 18.18 6.285 18.165 6.285Z" fill="#4E4E4E"/>
</g>
<defs>
<clipPath id="clip0_204_7795">
<rect width="24" height="24" fill="white"/>
</clipPath>
</defs>
</svg>
