<svg width="24" height="24" viewBox="0 0 24 24" fill="none" xmlns="http://www.w3.org/2000/svg">
<g clip-path="url(#clip0_204_7794)">
<path d="M2.40094 3.35999C1.60781 3.35999 0.960938 4.00686 0.960938 4.79999V19.2C0.960938 19.9931 1.60781 20.64 2.40094 20.64H5.28094C5.54531 20.64 5.76094 20.4244 5.76094 20.16V19.44C5.76094 19.2975 5.69719 19.1625 5.58844 19.0725C5.44969 18.9562 5.22656 18.7069 5.29406 18.3487C5.35219 18.0337 5.63531 17.7806 5.94844 17.7619C6.16031 17.7469 6.35344 17.8162 6.49781 17.9531C6.64219 18.0881 6.72094 18.2737 6.72094 18.48C6.72094 18.7706 6.52781 18.9769 6.41344 19.0725C6.30469 19.1625 6.24094 19.2975 6.24094 19.44V20.16C6.24094 20.4244 6.45656 20.64 6.72094 20.64H12.7097L13.1803 19.68H7.20094V19.6481C7.51219 19.32 7.68094 18.9112 7.68094 18.48C7.68094 18.0075 7.49344 17.5706 7.15594 17.2519C6.81469 16.9331 6.36656 16.7756 5.88844 16.8037C5.13656 16.8525 4.48969 17.4262 4.35094 18.1725C4.24781 18.7106 4.41281 19.2375 4.80094 19.6481V19.68H2.40094C2.13656 19.68 1.92094 19.4644 1.92094 19.2V4.79999C1.92094 4.53561 2.13656 4.31999 2.40094 4.31999H21.6009C21.8653 4.31999 22.0809 4.53561 22.0809 4.79999V13.4775L23.0409 13.3425V4.79999C23.0409 4.00686 22.3941 3.35999 21.6009 3.35999H2.40094ZM7.65469 6.23999C6.67406 6.25874 5.95031 6.72186 5.66156 7.40436C5.40094 8.01936 5.45531 8.72624 5.61094 9.44436C5.51906 9.60749 5.45906 9.79874 5.48906 10.035C5.52094 10.3144 5.59406 10.5375 5.72906 10.7156C5.76656 10.7681 5.83406 10.7662 5.88281 10.8056C5.92406 10.9987 5.96344 11.1937 6.03656 11.355C6.08719 11.4675 6.14156 11.5687 6.20531 11.6625C6.21469 11.6756 6.23531 11.6887 6.24281 11.7C6.25219 11.8912 6.25969 12.0675 6.25406 12.2325C6.22406 12.2906 6.15656 12.3712 5.94094 12.4781C5.70844 12.5925 5.37094 12.705 5.01281 12.855C4.65656 13.005 4.27406 13.1925 3.95344 13.5094C3.63094 13.8281 3.39469 14.2875 3.36094 14.8519L3.33094 15.36H12.0309L12.0009 14.8519C11.9672 14.2894 11.7309 13.8281 11.4103 13.5094C11.0916 13.1925 10.7091 13.005 10.3528 12.855C9.99844 12.705 9.66094 12.5906 9.42844 12.4781C9.21469 12.3712 9.14719 12.2906 9.11719 12.2325C9.10969 12.0619 9.11531 11.8856 9.12094 11.7C9.12844 11.6869 9.14906 11.6756 9.15656 11.6625C9.22031 11.5687 9.27469 11.4675 9.32344 11.355C9.39656 11.1937 9.43781 10.9969 9.47906 10.8056C9.52781 10.7644 9.59531 10.7681 9.63281 10.7156C9.76781 10.5375 9.84281 10.3144 9.87469 10.035C9.90281 9.79311 9.83906 9.59999 9.74344 9.43686C9.83719 9.09374 9.95719 8.66624 9.91594 8.13936C9.89344 7.82061 9.81656 7.48311 9.60844 7.18499C9.42281 6.91874 9.10594 6.72561 8.73844 6.64124C8.45156 6.37311 8.07281 6.23999 7.66406 6.23999H7.65469ZM7.66781 7.19999C8.00156 7.20186 8.13656 7.31249 8.13094 7.30499L8.24719 7.51499L8.48344 7.54874C8.68594 7.57874 8.75344 7.63686 8.82094 7.73436C8.89031 7.83186 8.94469 8.00061 8.95969 8.21249C8.99156 8.63249 8.86781 9.18186 8.79094 9.41999L8.67844 9.77249L8.92031 9.92436C8.90719 10.0444 8.89219 10.0556 8.88281 10.0781L8.62406 10.1006L8.58094 10.4944C8.56781 10.6331 8.51156 10.8225 8.44781 10.9631C8.41781 11.0325 8.38406 11.0925 8.36344 11.1244L8.16094 11.235V11.52C8.16094 11.7825 8.12719 12.0412 8.16094 12.4144L8.16656 12.4781L8.18719 12.5362C8.33531 12.9506 8.68219 13.1794 9.00656 13.3387C9.32906 13.4981 9.67031 13.6087 9.98156 13.74C10.2909 13.8712 10.5572 14.0156 10.7353 14.1919C10.7859 14.2425 10.7841 14.3437 10.8234 14.4H4.53844C4.57781 14.3437 4.57594 14.2444 4.62844 14.1919C4.80469 14.0175 5.07469 13.8712 5.38594 13.74C5.69531 13.6087 6.04031 13.4981 6.36469 13.3387C6.68906 13.1794 7.03594 12.9506 7.18594 12.5344L7.20656 12.4781L7.21031 12.4144C7.24406 12.0319 7.20094 11.7712 7.20094 11.52V11.235L7.00031 11.1262C7.00031 11.1244 7.00031 11.1262 6.99844 11.1225C6.97781 11.0925 6.94406 11.0325 6.91406 10.9631C6.85031 10.8225 6.79406 10.635 6.78094 10.4981L6.73969 10.1006L6.48094 10.0781C6.46969 10.0556 6.45656 10.0444 6.44156 9.92436L6.66281 9.78374L6.57844 9.44811C6.40406 8.74874 6.39469 8.13374 6.54469 7.77749C6.69469 7.42311 6.93469 7.21686 7.66781 7.19999ZM13.9209 8.63999V9.59999H20.1609V8.63999H13.9209ZM13.9209 11.52V12.48H20.1609V11.52H13.9209ZM18.9609 13.44L17.6503 14.7019L15.8466 14.4469L15.5316 16.2375L13.9209 17.0869L14.7216 18.72L13.9209 20.3512L15.5316 21.2025L15.8466 22.9912L17.6503 22.7381L18.9609 24L20.2716 22.7381L22.0753 22.9931L22.3903 21.2025L24.0009 20.3531L23.2003 18.72L24.0009 17.0887L22.3903 16.2375L22.0753 14.4487L20.2716 14.7019L18.9609 13.44ZM18.9609 14.775L19.6003 15.3919L19.9397 15.72L20.4066 15.6525L21.2878 15.5306L21.4416 16.4025L21.5241 16.8656L21.9384 17.085L22.7259 17.5012L22.3341 18.2981L22.1278 18.72L22.3359 19.1419L22.7259 19.9406L21.9384 20.355L21.5222 20.5744L21.4416 21.0375L21.2859 21.9131L20.4066 21.7875L19.9378 21.7219L19.6003 22.0481L18.9609 22.665L18.3197 22.0481L17.9803 21.7219L17.5134 21.7875L16.6341 21.9112L16.4784 21.0375L16.3978 20.5744L15.9816 20.355L15.1959 19.9387L15.5859 19.1419L15.7941 18.72L15.5859 18.2981L15.1959 17.4994L15.9834 17.085L16.3978 16.8656L16.4803 16.4025L16.6341 15.5269L17.5153 15.6525L17.9822 15.7181L18.3216 15.3919L18.9609 14.775Z" fill="#4E4E4E"/>
</g>
<defs>
<clipPath id="clip0_204_7794">
<rect width="24" height="24" fill="white"/>
</clipPath>
</defs>
</svg>
