<svg width="16" height="16" viewBox="0 0 16 16" fill="none" xmlns="http://www.w3.org/2000/svg">
<path d="M11.2206 0.47999C11.1481 0.48999 11.0806 0.52624 11.0306 0.57999L0.600625 11.01C0.476875 11.135 0.476875 11.335 0.600625 11.46L4.51062 15.37C4.57062 15.4325 4.65437 15.4675 4.74062 15.4675C4.82687 15.4675 4.91062 15.4325 4.97062 15.37L15.4006 4.93999C15.5244 4.81499 15.5244 4.61499 15.4006 4.48999L11.4906 0.57999C11.4756 0.56124 11.4594 0.54499 11.4406 0.52999C11.3844 0.49374 11.3181 0.47624 11.2506 0.47999C11.2406 0.47999 11.2306 0.47999 11.2206 0.47999ZM11.2606 1.25999L14.7206 4.71999L4.74062 14.69L1.28063 11.24L2.19062 10.33L2.97062 11.11L3.43062 10.65L2.65062 9.86999L3.47062 9.04999L5.21062 10.79L5.67062 10.33L3.93062 8.58999L4.75062 7.76999L5.53062 8.54999L5.99062 8.08999L5.21062 7.30999L6.03062 6.48999L7.77062 8.22999L8.23062 7.76999L6.49062 6.02999L7.31062 5.20999L8.09062 5.98999L8.55062 5.52999L7.77062 4.74999L8.59062 3.92999L10.3306 5.66999L10.7906 5.20999L9.05062 3.46999L9.87062 2.64999L10.6506 3.42999L11.1106 2.96999L10.3306 2.18999L11.2606 1.25999Z" fill="#4E4E4E"/>
</svg>
