<svg width="24" height="31" viewBox="0 0 24 31" fill="none" xmlns="http://www.w3.org/2000/svg">
<path d="M18.2571 13.7144C18.0621 13.7107 17.8839 13.8269 17.8052 14.0051C17.7283 14.1851 17.7677 14.3932 17.9046 14.5319L21.7333 18.5201H0.971445C0.798945 18.5182 0.637695 18.6082 0.551445 18.7582C0.46332 18.9082 0.46332 19.0919 0.551445 19.2419C0.637695 19.3919 0.798945 19.4819 0.971445 19.4801H21.7333L17.9046 23.4682C17.7208 23.6594 17.7283 23.9632 17.9196 24.1469C18.1108 24.3307 18.4146 24.3251 18.5983 24.1319L23.5258 19.0001L18.5983 13.8682C18.5102 13.7726 18.3864 13.7182 18.2571 13.7144Z" fill="#4E4E4E"/>
</svg>
